<?xml version="1.0" encoding="UTF-8" standalone="no"?>
<!-- Created with Inkscape (http://www.inkscape.org/) -->

<svg
   xmlns:dc="http://purl.org/dc/elements/1.1/"
   xmlns:cc="http://creativecommons.org/ns#"
   xmlns:rdf="http://www.w3.org/1999/02/22-rdf-syntax-ns#"
   xmlns:svg="http://www.w3.org/2000/svg"
   xmlns="http://www.w3.org/2000/svg"
   xmlns:sodipodi="http://sodipodi.sourceforge.net/DTD/sodipodi-0.dtd"
   xmlns:inkscape="http://www.inkscape.org/namespaces/inkscape"
   width="1052.3622"
   height="744.09448"
   id="svg2"
   version="1.1"
   inkscape:version="0.48.4 r9939"
   sodipodi:docname="FrontPageLandscape.svg">
  <defs
     id="defs4" />
  <sodipodi:namedview
     id="base"
     pagecolor="#ffffff"
     bordercolor="#666666"
     borderopacity="1.0"
     inkscape:pageopacity="0.0"
     inkscape:pageshadow="2"
     inkscape:zoom="0.7"
     inkscape:cx="588.02747"
     inkscape:cy="205.6884"
     inkscape:document-units="mm"
     inkscape:current-layer="layer3"
     showgrid="false"
     inkscape:window-width="1680"
     inkscape:window-height="1000"
     inkscape:window-x="0"
     inkscape:window-y="0"
     inkscape:window-maximized="1"
     showguides="false"
     inkscape:guide-bbox="true"
     units="mm"
     inkscape:snap-grids="false"
     inkscape:snap-bbox="true"
     inkscape:snap-bbox-midpoints="true"
     inkscape:snap-global="true"
     inkscape:snap-to-guides="true">
    <inkscape:grid
       units="mm"
       empspacing="10"
       visible="true"
       enabled="true"
       snapvisiblegridlinesonly="true"
       type="xygrid"
       id="grid3073" />
    <sodipodi:guide
       orientation="0,1"
       position="432.5074,577.57161"
       id="guide3079" />
    <sodipodi:guide
       orientation="0,1"
       position="-35.433071,175.3937"
       id="guide3081" />
    <sodipodi:guide
       orientation="0,1"
       position="-35.433071,87.69685"
       id="guide3089" />
  </sodipodi:namedview>
  <metadata
     id="metadata7">
    <rdf:RDF>
      <cc:Work
         rdf:about="">
        <dc:format>image/svg+xml</dc:format>
        <dc:type
           rdf:resource="http://purl.org/dc/dcmitype/StillImage" />
        <dc:title />
      </cc:Work>
    </rdf:RDF>
  </metadata>
  <g
     inkscape:groupmode="layer"
     id="layer3"
     inkscape:label="Deckblatt"
     transform="translate(0,-308.2677)"
     style="display:inline">
    <g
       id="g3055"
       transform="translate(247.91528,309.51804)">
      <text
         sodipodi:linespacing="125%"
         id="text3047"
         y="434.14883"
         x="279.31418"
         style="font-size:16px;font-style:normal;font-variant:normal;font-weight:normal;font-stretch:normal;text-align:center;line-height:125%;letter-spacing:2.13999987px;word-spacing:0px;text-anchor:middle;fill:#000000;fill-opacity:1;stroke:none;font-family:EB Garamond 12 All SC;-inkscape-font-specification:EB Garamond 12 All SC"
         xml:space="preserve"><tspan
           y="434.14883"
           x="280.38419"
           id="tspan3049"
           sodipodi:role="line">baldassare</tspan></text>
      <text
         sodipodi:linespacing="125%"
         id="text3051"
         y="452.66589"
         x="277.94019"
         style="font-size:12px;font-style:normal;font-variant:normal;font-weight:normal;font-stretch:normal;text-align:center;line-height:125%;letter-spacing:5.19000053px;word-spacing:0px;text-anchor:middle;fill:#d40000;fill-opacity:1;stroke:none;font-family:EB Garamond;-inkscape-font-specification:EB Garamond"
         xml:space="preserve"><tspan
           style="font-size:20px;letter-spacing:5.19000053px;fill:#d40000"
           y="452.66589"
           x="280.53519"
           id="tspan3053"
           sodipodi:role="line">GALUPPI</tspan></text>
    </g>
    <text
       xml:space="preserve"
       style="font-size:12px;font-style:normal;font-variant:normal;font-weight:normal;font-stretch:normal;text-align:center;line-height:110.00000238%;letter-spacing:0px;word-spacing:0px;text-anchor:middle;fill:#000000;fill-opacity:1;stroke:none;font-family:EB Garamond;-inkscape-font-specification:EB Garamond"
       x="526.22748"
       y="559.57654"
       id="text3061"
       sodipodi:linespacing="110%"><tspan
         sodipodi:role="line"
         x="526.22748"
         y="559.57654"
         style="font-size:14px;font-style:normal;line-height:110.00000238%;-inkscape-font-specification:EB Garamond"
         id="tspan3077">Messa Concertata</tspan><tspan
         sodipodi:role="line"
         x="526.22748"
         y="574.97656"
         style="font-size:14px;font-style:normal;line-height:110.00000238%;-inkscape-font-specification:EB Garamond"
         id="tspan3038" /><tspan
         sodipodi:role="line"
         x="526.22748"
         y="590.37653"
         style="font-size:14px;font-style:normal;line-height:110.00000238%;-inkscape-font-specification:EB Garamond"
         id="tspan3040">BurG App. 2</tspan></text>
    <text
       xml:space="preserve"
       style="font-size:14px;font-style:normal;font-variant:normal;font-weight:normal;font-stretch:normal;text-align:center;line-height:125%;letter-spacing:1.84000015px;word-spacing:0px;text-anchor:middle;fill:#000000;fill-opacity:1;stroke:none;font-family:EB Garamond 12 All SC;-inkscape-font-specification:EB Garamond 12 All SC"
       x="526.20123"
       y="967.76636"
       id="text3099"
       sodipodi:linespacing="125%"><tspan
         sodipodi:role="line"
         x="527.12122"
         y="967.76636"
         id="tspan3023">full score</tspan></text>
    <text
       sodipodi:linespacing="110%"
       id="text3021"
       y="876.96851"
       x="526.0517"
       style="font-size:12px;font-style:normal;font-variant:normal;font-weight:normal;font-stretch:normal;text-align:center;line-height:110.00000238%;letter-spacing:0px;word-spacing:0px;text-anchor:middle;fill:#000000;fill-opacity:1;stroke:none;font-family:EB Garamond;-inkscape-font-specification:EB Garamond"
       xml:space="preserve"><tspan
         id="tspan3032"
         style="font-size:14px;font-style:normal;line-height:110.00000238%;-inkscape-font-specification:EB Garamond"
         y="876.96851"
         x="526.0517"
         sodipodi:role="line">2 S, A, T, B (Solo), 2 S, A, T, B (Coro), 2 vl, vla, b, org</tspan></text>
    <g
       transform="translate(418.0157,234.15094)"
       style="font-size:72px;font-style:normal;font-variant:normal;font-weight:normal;font-stretch:normal;text-align:center;line-height:125%;letter-spacing:0px;word-spacing:0px;text-anchor:middle;fill:none;stroke:#808080;stroke-width:0.625;stroke-miterlimit:4;stroke-opacity:1;stroke-dasharray:none;font-family:EB Garamond;-inkscape-font-specification:EB Garamond"
       id="text3010">
      <path
         d="m -183.1618,252.66363 -1.224,-23.76 c -0.216,-4.104 0.576,-5.544 2.808,-6.48 2.88,-1.224 3.456,-1.44 3.456,-2.16 0,-0.72 -0.288,-1.224 -1.152,-1.224 -2.304,0 -7.272,0.72 -9.144,0.72 -1.872,0 -2.88,0 -3.672,1.656 l -11.304,23.472 c -1.368,2.736 -1.656,1.584 -2.232,0.072 l -8.424,-20.664 c -1.368,-3.24 -2.592,-4.536 -4.536,-4.536 -3.31199,0 -5.4,-0.36 -7.992,-0.36 -0.864,0 -2.448,-0.072 -2.448,1.008 0,1.152 2.592,2.232 3.888,3.456 1.8,1.656 2.952,3.024 2.304,8.136 l -2.448,19.152 c -0.504,3.6 -1.728,6.48 -4.176,7.56 -1.656,0.72 -3.96,1.08 -3.96,2.16 0,0.72 1.584,1.152 2.376,1.224 0.504,0 3.24001,-0.432 6.624,-0.432 3.456,0 6.624,0.432 7.128,0.432 0.792,-0.072 2.304,-0.504 2.304,-1.224 0,-1.08 -2.376,-1.44 -3.96,-2.16 -1.872,-0.864 -2.376,-4.392 -2.232,-6.336 l 1.224,-20.088 c 0.072,-1.8 0.72,-2.808 1.8,-0.072 l 8.856,22.68 c 1.512,3.888 2.088,4.464 2.808,4.464 0.648,0 3.672,-6.192 3.96,-6.84 l 9.72,-22.32 c 0.504,-1.296 1.8,-1.584 1.872,-0.216 l 0.936,22.68 c 0.144,2.664 -0.936,4.968 -3.384,6.048 -1.584,0.72 -3.96,1.08 -3.96,2.16 0,0.72 1.584,1.152 2.376,1.224 0.504,0 4.75201,-0.432 8.136,-0.432 3.456,0 8.208,0.432 8.712,0.432 0.792,-0.072 2.304,-0.504 2.304,-1.224 0,-1.08 -2.376,-1.44 -3.96,-2.16 -2.448,-1.08 -3.24,-3.384 -3.384,-6.048"
         style="fill:none;stroke:#808080;stroke-width:0.625;stroke-miterlimit:4;stroke-opacity:1;stroke-dasharray:none"
         id="path3015"
         inkscape:connector-curvature="0" />
      <path
         d="m -160.2298,236.31963 0,-12.096 c 0,-0.936 0.288,-1.512 2.232,-1.512 l 8.568,0 c 3.456,0 5.256,1.152 5.832,2.376 0.648,1.44 1.728,2.736 2.592,2.736 0.864,0 1.152,-1.008 1.152,-1.872 0,-0.792 -0.36,-4.752 -0.648,-5.904 -0.144,-0.648 -0.72,-1.008 -1.872,-1.008 -1.296,0 -5.544,0.36 -8.568,0.36 l -20.664,0 c -1.512,0 -2.52,0.432 -2.52,1.296 0,0.648 0.504,1.008 1.152,1.224 4.104,1.152 5.904,1.224 5.904,5.328 l 0,26.28 c 0,2.664 -0.936,4.104 -3.384,5.184 -1.584,0.72 -3.96,1.08 -3.96,2.16 0,0.72 1.584,1.152 2.376,1.224 0.504,0 4.75201,-0.36 8.136,-0.36 7.63199,0 20.664,0.36 23.328,0.36 1.224,0 1.368,-0.288 1.944,-1.368 0.576,-0.936 2.736,-6.264 2.736,-8.28 0,-1.08 -0.288,-1.8 -1.008,-1.8 -0.648,0 -1.584,0.576 -1.944,1.368 -2.088,4.392 -3.024,6.696 -8.568,6.696 l -10.08,0 c -2.088,0 -2.736,-0.936 -2.736,-2.808 l 0,-12.096 c 0,-1.368 0.36,-1.728 1.728,-1.728 l 7.56,0 c 1.512,0 2.016,0.72 2.52,1.512 0.432,0.72 1.368,2.736 2.304,2.736 0.72,0 0.936,-1.152 0.936,-1.872 0,-0.792 -0.072,-3.024 -0.072,-4.104 0,-1.08 0.288,-3.6 0.288,-4.176 0,-0.864 -0.144,-1.44 -0.792,-1.44 -0.792,0 -1.44,1.08 -2.232,1.8 -1.296,1.224 -2.088,2.016 -4.392,2.016 l -6.192,0 c -1.008,0 -1.656,-0.504 -1.656,-2.232"
         style="fill:none;stroke:#808080;stroke-width:0.625;stroke-miterlimit:4;stroke-opacity:1;stroke-dasharray:none"
         id="path3017"
         inkscape:connector-curvature="0" />
      <path
         d="m -118.22792,218.67963 c -7.056,0 -12.816,5.32801 -12.816,12.096 0,3.528 1.656,6.12 4.248,8.28 l 9.72,8.208 c 1.8,1.512 2.88,3.312 2.88,5.76 0,3.6 -2.66401,6.912 -6.264,6.912 -4.176,0 -6.984,-2.088 -7.776,-4.68 -0.648,-2.16 -1.296,-3.384 -2.448,-3.384 -0.72,0 -1.224,0.864 -1.368,1.728 -0.216,0.936 -0.504,3.96 -0.504,4.968 0,1.008 0.648,1.368 3.312,2.592 1.728,0.792 5.04,1.584 7.56,1.584 7.19999,0 14.472,-5.25601 14.472,-12.312 0,-3.024 -1.22401,-5.472 -3.456,-7.344 l -10.152,-8.568 c -2.16,-1.8 -3.672,-3.672 -3.672,-6.048 0,-3.168 2.808,-5.688 5.904,-5.688 2.08799,0 4.968,0.864 5.688,2.592 1.08,2.592 2.016,3.312 2.88,3.312 1.08,0 1.44,-1.008 1.44,-1.944 0,-1.368 -0.072,-2.952 -0.288,-4.104 -0.144,-0.792 -0.792,-1.368 -2.16,-2.088 -1.584,-0.792 -4.89601,-1.872 -7.2,-1.872"
         style="fill:none;stroke:#808080;stroke-width:0.625;stroke-miterlimit:4;stroke-opacity:1;stroke-dasharray:none"
         id="path3019"
         inkscape:connector-curvature="0" />
      <path
         d="m -88.837298,218.67963 c -7.055993,0 -12.816002,5.32801 -12.816002,12.096 0,3.528 1.656005,6.12 4.248002,8.28 l 9.72,8.208 c 1.799998,1.512 2.88,3.312 2.88,5.76 0,3.6 -2.664004,6.912 -6.264,6.912 -4.175996,0 -6.984001,-2.088 -7.776,-4.68 -0.647999,-2.16 -1.296002,-3.384 -2.448002,-3.384 -0.72,0 -1.224,0.864 -1.368,1.728 -0.216,0.936 -0.504,3.96 -0.504,4.968 0,1.008 0.648,1.368 3.312002,2.592 1.727998,0.792 5.040003,1.584 7.56,1.584 7.199993,0 14.472,-5.25601 14.472,-12.312 0,-3.024 -1.224002,-5.472 -3.456,-7.344 l -10.152,-8.568 c -2.159998,-1.8 -3.672,-3.672 -3.672,-6.048 0,-3.168 2.808003,-5.688 5.904,-5.688 2.087998,0 4.968001,0.864 5.688,2.592 1.079999,2.592 2.016001,3.312 2.88,3.312 1.079999,0 1.44,-1.008 1.44,-1.944 0,-1.368 -0.072,-2.952 -0.288,-4.104 -0.144,-0.792 -0.792001,-1.368 -2.16,-2.088 -1.583998,-0.792 -4.896002,-1.872 -7.2,-1.872"
         style="fill:none;stroke:#808080;stroke-width:0.625;stroke-miterlimit:4;stroke-opacity:1;stroke-dasharray:none"
         id="path3021"
         inkscape:connector-curvature="0" />
      <path
         d="m -59.014673,242.36763 5.04,-14.328 c 0.288,-0.72 0.576,-0.936 0.792,-0.216 l 4.392,13.464 c 0.719999,2.304 0.647999,2.592 -0.792,2.592 l -8.784,0 c -1.295999,0 -1.079999,-0.36 -0.648,-1.512 m 20.52,19.296 c 2.375998,0 4.968002,0.432 6.624,0.432 1.367999,0 2.088,-0.36 2.088,-1.152 0,-0.72 -0.648002,-1.44 -2.88,-2.232 -3.527996,-1.296 -4.320002,-3.24001 -6.408,-9.072 l -9.504,-26.856 c -1.007999,-2.808 -1.440001,-5.184 -2.664,-5.184 -0.431999,0 -1.728001,2.016 -3.096,2.16 -0.791999,0.072 -0.792001,1.008 -2.016,4.104 l -11.016,30.456 c -1.079999,2.952 -1.008002,3.312 -3.384,4.392 -1.583998,0.72 -3.96,1.08 -3.96,2.16 0,0.792 1.008001,1.224 2.376,1.224 1.079999,0 2.736002,-0.432 4.536,-0.432 1.367999,0 4.536001,0.432 5.904,0.432 1.799998,0 2.52,-0.432 2.52,-1.224 0,-0.72 -0.792002,-1.512 -2.664,-2.016 -2.087998,-0.576 -2.015999,-1.728 -1.584,-3.024 l 2.736,-7.848 c 0.288,-0.72 0.792,-0.792 1.152,-0.792 l 12.024,0 c 0.576,0 0.936,0.216 1.152,0.864 l 2.088,6.84 c 0.36,1.224 0.503997,2.592 -2.088,3.816 -1.583998,0.72 -3.888,1.08 -3.888,2.16 0,0.792 1.368001,1.224 2.304,1.224 2.159998,0 4.896005,-0.432 9.648,-0.432"
         style="fill:none;stroke:#808080;stroke-width:0.625;stroke-miterlimit:4;stroke-opacity:1;stroke-dasharray:none"
         id="path3023"
         inkscape:connector-curvature="0" />
      <path
         d="m 14.819077,218.17563 c -14.18398573,0 -26.064,9.79201 -26.064,23.976 0,12.81599 12.5280123,20.952 24.696,20.952 4.031996,0 9.072003,-0.792 11.952,-1.8 1.799998,-0.648 2.160001,-1.152 3.312,-3.528 0.647999,-1.368 2.88,-6.264 2.88,-6.84 0,-1.296 -0.576,-2.016 -1.152,-2.016 -0.575999,0 -1.008,0.144 -1.296,0.576 -3.815996,5.39999 -5.472007,10.44 -12.744,10.44 -11.4479885,0 -19.5839999,-9.79201 -19.5839999,-20.808 0,-9.93599 7.2720093,-17.712 16.5599999,-17.712 5.111995,0 12.024001,1.872 13.032,5.04 0.935999,3.024 1.800001,4.536 2.88,4.536 0.791999,0 1.296,-0.792 1.296,-2.016 0,-3.96 -0.504002,-7.776 -2.16,-7.92 -1.655998,-0.144 -8.136005,-2.88 -13.608,-2.88"
         style="fill:none;stroke:#808080;stroke-width:0.625;stroke-miterlimit:4;stroke-opacity:1;stroke-dasharray:none"
         id="path3025"
         inkscape:connector-curvature="0" />
      <path
         d="m 45.903952,238.19163 c 0,-7.91999 5.760008,-15.984 13.68,-15.984 9.359991,0 14.328,10.22401 14.328,19.584 0,8.56799 -3.744008,17.712 -12.312,17.712 -10.00799,0 -15.696,-11.30401 -15.696,-21.312 m 16.416,-19.296 c -14.255986,0 -24.48,8.20801 -24.48,21.816 0,13.10399 9.864013,22.104 22.752,22.104 12.311988,0 21.384,-10.87201 21.384,-23.184 0,-10.51199 -9.86401,-20.736 -19.656,-20.736"
         style="fill:none;stroke:#808080;stroke-width:0.625;stroke-miterlimit:4;stroke-opacity:1;stroke-dasharray:none"
         id="path3027"
         inkscape:connector-curvature="0" />
      <path
         d="m 97.592077,252.66363 0,-18.36 c 0,-1.584 0.576001,-1.512 1.368,-0.72 l 22.392003,24.84 c 2.73599,3.024 5.328,4.32 6.12,4.32 0.72,0 1.44,-0.144 1.44,-0.864 0,-1.944 -0.216,-2.52 -0.216,-5.904 l 0,-28.728 c 0,-4.176 1.872,-4.176 5.976,-5.328 0.648,-0.216 1.08,-0.576 1.08,-1.224 0,-0.864 -1.44,-1.296 -2.52,-1.296 -2.448,0 -3.96001,0.36 -6.48,0.36 -2.592,0 -3.74401,-0.36 -6.552,-0.36 -1.08,0 -2.52,0.432 -2.52,1.296 0,0.648 0.504,1.008 1.152,1.224 4.10399,1.152 5.904,1.152 5.904,5.328 l 0,22.032 c 0,1.44 -1.08,1.08 -2.016,0 l -23.976003,-26.928 c -0.719999,-0.792 -2.232001,-2.592 -3.816,-2.592 l -7.56,0 c -1.007999,0 -1.512,0.216 -1.512,0.792 0,1.296 2.736002,1.8 4.32,3.456 l 2.664,2.88 c 0.791999,0.936 1.008,3.528 1.008,6.984 l 0,18.792 c 0,2.736 -0.936002,4.968 -3.384,6.048 -1.583998,0.72 -3.96,1.08 -3.96,2.16 0,0.72 1.584001,1.152 2.376,1.224 0.504,0 3.240003,-0.432 6.624,-0.432 3.455997,0 6.624003,0.432 7.128003,0.432 0.792,-0.072 2.304,-0.504 2.304,-1.224 0,-1.08 -2.376,-1.44 -3.96,-2.16 -2.448,-1.08 -3.384003,-3.312 -3.384003,-6.048"
         style="fill:none;stroke:#808080;stroke-width:0.625;stroke-miterlimit:4;stroke-opacity:1;stroke-dasharray:none"
         id="path3029"
         inkscape:connector-curvature="0" />
      <path
         d="m 164.30345,218.17563 c -14.18398,0 -26.064,9.79201 -26.064,23.976 0,12.81599 12.52801,20.952 24.696,20.952 4.032,0 9.072,-0.792 11.952,-1.8 1.8,-0.648 2.16,-1.152 3.312,-3.528 0.648,-1.368 2.88,-6.264 2.88,-6.84 0,-1.296 -0.576,-2.016 -1.152,-2.016 -0.576,0 -1.008,0.144 -1.296,0.576 -3.81599,5.39999 -5.47201,10.44 -12.744,10.44 -11.44799,0 -19.584,-9.79201 -19.584,-20.808 0,-9.93599 7.27201,-17.712 16.56,-17.712 5.112,0 12.024,1.872 13.032,5.04 0.936,3.024 1.8,4.536 2.88,4.536 0.792,0 1.296,-0.792 1.296,-2.016 0,-3.96 -0.504,-7.776 -2.16,-7.92 -1.656,-0.144 -8.136,-2.88 -13.608,-2.88"
         style="fill:none;stroke:#808080;stroke-width:0.625;stroke-miterlimit:4;stroke-opacity:1;stroke-dasharray:none"
         id="path3031"
         inkscape:connector-curvature="0" />
      <path
         d="m 199.34833,236.31963 0,-12.096 c 0,-0.936 0.288,-1.512 2.232,-1.512 l 8.568,0 c 3.45599,0 5.256,1.152 5.832,2.376 0.648,1.44 1.728,2.736 2.592,2.736 0.864,0 1.152,-1.008 1.152,-1.872 0,-0.792 -0.36,-4.752 -0.648,-5.904 -0.144,-0.648 -0.72,-1.008 -1.872,-1.008 -1.296,0 -5.54401,0.36 -8.568,0.36 l -20.664,0 c -1.512,0 -2.52,0.432 -2.52,1.296 0,0.648 0.504,1.008 1.152,1.224 4.10399,1.152 5.904,1.224 5.904,5.328 l 0,26.28 c 0,2.664 -0.93601,4.104 -3.384,5.184 -1.584,0.72 -3.96,1.08 -3.96,2.16 0,0.72 1.584,1.152 2.376,1.224 0.504,0 4.752,-0.36 8.136,-0.36 7.63199,0 20.664,0.36 23.328,0.36 1.224,0 1.368,-0.288 1.944,-1.368 0.576,-0.936 2.736,-6.264 2.736,-8.28 0,-1.08 -0.288,-1.8 -1.008,-1.8 -0.648,0 -1.584,0.576 -1.944,1.368 -2.088,4.392 -3.02401,6.696 -8.568,6.696 l -10.08,0 c -2.088,0 -2.736,-0.936 -2.736,-2.808 l 0,-12.096 c 0,-1.368 0.36,-1.728 1.728,-1.728 l 7.56,0 c 1.512,0 2.016,0.72 2.52,1.512 0.432,0.72 1.368,2.736 2.304,2.736 0.72,0 0.936,-1.152 0.936,-1.872 0,-0.792 -0.072,-3.024 -0.072,-4.104 0,-1.08 0.288,-3.6 0.288,-4.176 0,-0.864 -0.144,-1.44 -0.792,-1.44 -0.792,0 -1.44,1.08 -2.232,1.8 -1.296,1.224 -2.08801,2.016 -4.392,2.016 l -6.192,0 c -1.008,0 -1.656,-0.504 -1.656,-2.232"
         style="fill:none;stroke:#808080;stroke-width:0.625;stroke-miterlimit:4;stroke-opacity:1;stroke-dasharray:none"
         id="path3033"
         inkscape:connector-curvature="0" />
      <path
         d="m 254.8142,244.23963 c -0.936,-1.368 -1.8,-2.952 -1.8,-3.6 0,-0.648 0.288,-0.576 1.224,-1.296 3.384,-2.448 5.688,-5.472 5.688,-10.08 0,-7.27199 -8.06401,-10.296 -15.336,-10.296 -6.40799,0 -9.36,0.216 -15.696,0.72 -1.512,0.072 -2.52,0.432 -2.52,1.296 0,0.648 0.504,1.008 1.152,1.224 4.104,1.152 5.904,1.224 5.904,5.328 l 0,25.992 c 0,2.664 -0.936,4.104 -3.384,5.184 -1.584,0.72 -3.96,1.08 -3.96,2.16 0,0.72 1.584,1.152 2.376,1.224 0.504,0 4.82401,-0.432 7.92,-0.432 3.456,0 8.208,0.432 8.712,0.432 0.792,-0.072 2.304,-0.504 2.304,-1.224 0,-1.08 -2.376,-1.44 -3.96,-2.16 -2.448,-1.08 -3.384,-2.52 -3.384,-5.184 l 0,-8.64 c 0,-1.44 0.504,-1.944 2.016,-1.944 3.024,0 5.112,0.936 5.976,2.376 3.744,6.26399 7.12801,10.512 11.376,14.976 2.016,2.16 5.61601,3.384 9.144,3.384 2.52,0 5.04,-0.864 5.04,-2.16 0,-0.576 -0.432,-1.152 -1.224,-1.224 -1.584,-0.144 -3.24,-0.504 -4.104,-1.152 -5.39999,-3.888 -9.936,-9.64801 -13.464,-14.904 m -11.808,-3.888 c -2.088,0 -2.952,-0.576 -2.952,-1.872 l 0,-13.896 c 0,-1.368 1.584,-2.448 3.6,-2.448 4.824,0 9.072,3.384 9.072,8.208 0,3.744 -1.584,6.192 -4.392,8.568 -0.648,0.72 -3.168,1.44 -5.328,1.44"
         style="fill:none;stroke:#808080;stroke-width:0.625;stroke-miterlimit:4;stroke-opacity:1;stroke-dasharray:none"
         id="path3036"
         inkscape:connector-curvature="0" />
      <path
         d="m 290.62633,225.59163 0,27.936 c 0,2.664 -0.93601,4.104 -3.384,5.184 -1.584,0.72 -3.96,1.08 -3.96,2.16 0,0.72 1.584,1.152 2.376,1.224 0.504,0 4.752,-0.432 8.136,-0.432 3.45599,0 8.208,0.432 8.712,0.432 0.792,-0.072 2.304,-0.504 2.304,-1.224 0,-1.08 -2.376,-1.44 -3.96,-2.16 -2.448,-1.08 -3.384,-2.52 -3.384,-5.184 l 0,-27.936 c 0,-0.72 0.144,-2.232 0.864,-2.232 l 11.16,0 c 1.008,0 1.944,0.936 2.592,2.016 0.792,1.368 1.872,3.24 2.592,3.24 0.864,0 1.008,-0.576 1.008,-1.656 0,-0.792 -0.144,-3.24 -0.144,-4.968 0,-1.584 0.288,-2.448 0.288,-3.096 0,-0.576 -0.432,-1.296 -1.296,-1.296 -0.864,0 -1.224,0.576 -2.088,1.08 -1.296,0.72 -2.44801,1.224 -5.04,1.224 l -25.128,0 c -3.96,0 -5.76,-2.16 -6.84,-2.16 -0.72,0 -1.224,0.864 -1.224,1.8 0,0.72 0.144,2.088 0.144,3.24 0,2.304 -0.36,2.88 -0.36,4.536 0,0.648 0.36,1.656 1.296,1.656 1.008,0 1.512,-2.016 2.304,-3.456 0.72,-1.296 1.224,-2.16 3.096,-2.16 l 8.784,0 c 0.72,0 1.152,0.792 1.152,2.232"
         style="fill:none;stroke:#808080;stroke-width:0.625;stroke-miterlimit:4;stroke-opacity:1;stroke-dasharray:none"
         id="path3038"
         inkscape:connector-curvature="0" />
      <path
         d="m 331.2197,242.36763 5.04,-14.328 c 0.288,-0.72 0.576,-0.936 0.792,-0.216 l 4.392,13.464 c 0.72,2.304 0.648,2.592 -0.792,2.592 l -8.784,0 c -1.296,0 -1.08,-0.36 -0.648,-1.512 m 20.52,19.296 c 2.376,0 4.968,0.432 6.624,0.432 1.368,0 2.088,-0.36 2.088,-1.152 0,-0.72 -0.648,-1.44 -2.88,-2.232 -3.52799,-1.296 -4.32,-3.24001 -6.408,-9.072 l -9.504,-26.856 c -1.008,-2.808 -1.44,-5.184 -2.664,-5.184 -0.432,0 -1.728,2.016 -3.096,2.16 -0.792,0.072 -0.792,1.008 -2.016,4.104 l -11.016,30.456 c -1.08,2.952 -1.008,3.312 -3.384,4.392 -1.584,0.72 -3.96,1.08 -3.96,2.16 0,0.792 1.008,1.224 2.376,1.224 1.08,0 2.736,-0.432 4.536,-0.432 1.368,0 4.536,0.432 5.904,0.432 1.8,0 2.52,-0.432 2.52,-1.224 0,-0.72 -0.792,-1.512 -2.664,-2.016 -2.088,-0.576 -2.016,-1.728 -1.584,-3.024 l 2.736,-7.848 c 0.288,-0.72 0.792,-0.792 1.152,-0.792 l 12.024,0 c 0.576,0 0.936,0.216 1.152,0.864 l 2.088,6.84 c 0.36,1.224 0.504,2.592 -2.088,3.816 -1.584,0.72 -3.888,1.08 -3.888,2.16 0,0.792 1.368,1.224 2.304,1.224 2.16,0 4.89601,-0.432 9.648,-0.432"
         style="fill:none;stroke:#808080;stroke-width:0.625;stroke-miterlimit:4;stroke-opacity:1;stroke-dasharray:none"
         id="path3040"
         inkscape:connector-curvature="0" />
      <path
         d="m 379.9232,225.59163 0,27.936 c 0,2.664 -0.936,4.104 -3.384,5.184 -1.584,0.72 -3.96,1.08 -3.96,2.16 0,0.72 1.584,1.152 2.376,1.224 0.504,0 4.75201,-0.432 8.136,-0.432 3.456,0 8.208,0.432 8.712,0.432 0.792,-0.072 2.304,-0.504 2.304,-1.224 0,-1.08 -2.376,-1.44 -3.96,-2.16 -2.448,-1.08 -3.384,-2.52 -3.384,-5.184 l 0,-27.936 c 0,-0.72 0.144,-2.232 0.864,-2.232 l 11.16,0 c 1.008,0 1.944,0.936 2.592,2.016 0.792,1.368 1.872,3.24 2.592,3.24 0.864,0 1.008,-0.576 1.008,-1.656 0,-0.792 -0.144,-3.24 -0.144,-4.968 0,-1.584 0.288,-2.448 0.288,-3.096 0,-0.576 -0.432,-1.296 -1.296,-1.296 -0.864,0 -1.224,0.576 -2.088,1.08 -1.296,0.72 -2.448,1.224 -5.04,1.224 l -25.128,0 c -3.95999,0 -5.76,-2.16 -6.84,-2.16 -0.72,0 -1.224,0.864 -1.224,1.8 0,0.72 0.144,2.088 0.144,3.24 0,2.304 -0.36,2.88 -0.36,4.536 0,0.648 0.36,1.656 1.296,1.656 1.008,0 1.512,-2.016 2.304,-3.456 0.72,-1.296 1.224,-2.16 3.096,-2.16 l 8.784,0 c 0.72,0 1.152,0.792 1.152,2.232"
         style="fill:none;stroke:#808080;stroke-width:0.625;stroke-miterlimit:4;stroke-opacity:1;stroke-dasharray:none"
         id="path3042"
         inkscape:connector-curvature="0" />
      <path
         d="m 420.51658,242.36763 5.04,-14.328 c 0.288,-0.72 0.576,-0.936 0.792,-0.216 l 4.392,13.464 c 0.72,2.304 0.648,2.592 -0.792,2.592 l -8.784,0 c -1.296,0 -1.08,-0.36 -0.648,-1.512 m 20.52,19.296 c 2.37599,0 4.968,0.432 6.624,0.432 1.368,0 2.088,-0.36 2.088,-1.152 0,-0.72 -0.64801,-1.44 -2.88,-2.232 -3.528,-1.296 -4.32001,-3.24001 -6.408,-9.072 l -9.504,-26.856 c -1.008,-2.808 -1.44,-5.184 -2.664,-5.184 -0.432,0 -1.728,2.016 -3.096,2.16 -0.792,0.072 -0.792,1.008 -2.016,4.104 l -11.016,30.456 c -1.08,2.952 -1.00801,3.312 -3.384,4.392 -1.584,0.72 -3.96,1.08 -3.96,2.16 0,0.792 1.008,1.224 2.376,1.224 1.08,0 2.736,-0.432 4.536,-0.432 1.368,0 4.536,0.432 5.904,0.432 1.8,0 2.52,-0.432 2.52,-1.224 0,-0.72 -0.792,-1.512 -2.664,-2.016 -2.088,-0.576 -2.016,-1.728 -1.584,-3.024 l 2.736,-7.848 c 0.288,-0.72 0.792,-0.792 1.152,-0.792 l 12.024,0 c 0.576,0 0.936,0.216 1.152,0.864 l 2.088,6.84 c 0.36,1.224 0.50399,2.592 -2.088,3.816 -1.584,0.72 -3.888,1.08 -3.888,2.16 0,0.792 1.368,1.224 2.304,1.224 2.15999,0 4.896,-0.432 9.648,-0.432"
         style="fill:none;stroke:#808080;stroke-width:0.625;stroke-miterlimit:4;stroke-opacity:1;stroke-dasharray:none"
         id="path3044"
         inkscape:connector-curvature="0" />
    </g>
  </g>
</svg>
